<svg xmlns="http://www.w3.org/2000/svg" width="128" height="128" viewBox="0 0 128 128">
  <rect fill="#6B6B6B" x="0" y="0" width="128" height="128" rx="16" ry="16" />
  <g>
    <path fill="#eee" d="m 94.288894,36.704769 c -0.12939,0.0244 -0.608678,0.21253 -1.157305,0.45408 -0.626989,0.27606 -1.802663,0.78016 -2.615991,1.12114 -0.813328,0.34098 -1.536643,0.65984 -1.607368,0.71126 -0.221624,0.16114 -1.775112,0.7635 -1.969025,0.7635 -8.723709,3.56575 -16.870471,7.20902 -25.613407,10.9301 -1.449846,0.61708 -3.496842,1.48407 -4.544833,1.92884 -1.047991,0.44477 -2.015363,0.90313 -2.149855,1.01666 -0.134491,0.11353 -0.771491,1.15972 -1.418503,2.32667 -0.647023,1.16695 -2.077247,3.74195 -3.174552,5.72223 -4.590476,8.05882 -9.660518,16.69476 -13.276858,23.8895 -0.37071,0.65285 -0.97966,1.73515 -1.35019,2.40703 -0.37053,0.67188 -0.9318,1.68453 -1.24973,2.25032 -0.31794,0.56579 -0.53096,1.0469 -0.47417,1.0689 0.0568,0.022 0.40754,-0.10479 0.78359,-0.28129 0.37605,-0.1765 1.00541,-0.44346 1.39439,-0.59473 0.38899,-0.15126 1.60714,-0.67546 2.70842,-1.16534 40.339034,-16.48817 -33.2925205,14.050521 33.489508,-14.20109 l 1.285894,-0.54249 2.2905,-4.10281 c 5.463944,-9.29397 10.675128,-19.70971 15.470915,-27.86774 1.902069,-3.33279 3.254194,-5.79127 3.210718,-5.83474 -0.0034,-0.003 -0.01366,-0.003 -0.03215,0 z m -30.544008,22.10131 c 0.157926,-0.003 0.31551,-0.002 0.478192,0.008 2.81521,0.177 5.110877,3.03596 4.581,5.70616 -0.348619,1.75679 -1.356811,3.07115 -2.917374,3.80142 -0.913615,0.42754 -2.304747,0.58214 -3.198662,0.35764 -2.60193,-0.65343 -4.380901,-3.4529 -3.753204,-5.90306 0.627849,-2.45071 2.44117,-3.92946 4.810048,-3.97019 z" />
    <path fill="#eee" d="m 64.396794,25.356499 c -0.903161,0.002 -1.494737,0.318999 -1.836424,0.984513 -0.205113,0.399529 -0.245118,0.759782 -0.245118,2.210131 0,1.32806 -0.04423,1.77618 -0.184847,1.91679 -0.112117,0.11212 -0.724164,0.24367 -1.57522,0.33754 -7.005128,0.77266 -13.261377,3.65592 -18.814239,8.67577 -5.79054,5.23472 -9.75145,13.02521 -10.4921,20.63861 -0.13851,1.42373 -0.146,1.43055 -2.54366,1.43055 -1.83555,0 -2.00373,0.0203 -2.399,0.28933 -0.72406,0.49279 -0.95818,0.91797 -0.95638,1.73997 0.002,0.90317 0.319,1.49876 0.98452,1.84044 0.40651,0.2087 0.76298,0.24512 2.40301,0.24512 1.52184,0 1.96427,0.0394 2.11369,0.18887 0.10395,0.10395 0.22937,0.5524 0.27726,0.99657 0.49209,4.56293 1.44302,7.96037 3.28707,11.7378 2.46794,5.16765 6.67815,9.53716 10.974313,12.77054 0.823499,0.61297 2.74478,1.74947 4.078689,2.41507 3.328486,1.66084 6.65053,2.68817 10.39967,3.21474 0.741241,0.1041 1.406692,0.24564 1.478779,0.31745 0.07214,0.0719 0.161521,1.04843 0.196909,2.17397 0.05285,1.680557 -0.217522,2.537537 1.346164,3.086137 0.567992,0.17486 1.471037,0.0413 1.956977,-0.28932 0.695836,-0.47338 0.811721,-0.87441 0.811721,-2.845047 0,-2.11576 0.07613,-2.26237 1.209537,-2.26237 1.499855,0 4.514184,-0.54176 6.927756,-1.24169 6.111959,-1.77243 11.702158,-5.42053 16.049573,-10.47602 1.001558,-1.16467 2.759144,-3.71625 3.753204,-5.44897 1.999772,-3.4858 3.495691,-8.20421 3.897867,-12.30039 0.04616,-0.47013 0.12994,-0.93305 0.188873,-1.02871 0.0789,-0.12808 0.601374,-0.18975 1.973037,-0.23709 l 1.860535,-0.0643 0.4581,-0.44605 c 0.76503,-0.74199 0.88984,-1.85082 0.31344,-2.78878 -0.40682,-0.662 -0.9085,-0.81574 -2.648148,-0.81574 -1.024717,0 -1.604308,-0.0532 -1.748007,-0.16074 -0.162382,-0.12153 -0.261126,-0.5841 -0.405866,-1.89669 -0.319455,-2.89687 -0.765866,-4.89028 -1.671663,-7.45819 -1.059204,-3.00277 -3.031406,-6.70515 -4.556888,-8.5512 -1.6354,-2.272 -2.347914,-2.90813 -4.970779,-5.44897 -1.644792,-1.50324 -3.991151,-3.11264 -6.381255,-4.37606 -3.864537,-2.04281 -7.897937,-3.25449 -12.228058,-3.67686 -0.496213,-0.0484 -0.95142,-0.16782 -1.060863,-0.27727 -0.151336,-0.15133 -0.188859,-0.566131 -0.188859,-1.965004 0,-1.625997 -0.02384,-1.808006 -0.289326,-2.198076 -0.492793,-0.724058 -0.921986,-0.958171 -1.743994,-0.956384 z m -0.04018,9.459364 c 5.644407,-0.01 11.319123,1.71492 16.154047,4.95873 3.229215,2.1246 6.233493,4.83211 8.506993,8.6838 0.879114,1.36834 2.368167,4.5557 2.925409,6.2607 1.477867,4.78507 1.8995,9.98179 0.976483,14.79582 -0.65011,3.17229 -1.625743,5.82697 -3.134367,8.52307 -4.361214,7.79405 -12.005102,13.17461 -20.783272,14.63106 -1.83474,0.30442 -5.867484,0.44098 -7.502396,0.25317 -4.715645,-0.54173 -9.203789,-2.13384 -12.995569,-4.60913 -4.089453,-2.52912 -6.963592,-6.05576 -8.848562,-9.10976 -0.66014,-0.73913 -2.27034,-4.17974 -2.99371,-6.39732 -0.9716,-2.97854 -1.38369,-5.67149 -1.3743,-9.00528 0.0217,-7.6839 3.06035,-14.95164 8.535119,-20.40956 4.769485,-4.75479 10.667265,-7.5969 17.407794,-8.39046 1.037743,-0.12217 2.081066,-0.18299 3.126331,-0.18484 z" />
    <circle style="fill: none; stroke: #eee; stroke-width: 6.8" cx="64" cy="64" r="47"/>
  </g>
</svg>
